name rise49.5252peak65.1548fall88.8305.mot
datacolumns 19
datarows 20
range 13.23660800000000 13.26828100000000
endheader
time	ground_force1_vx	ground_force1_vy	ground_force1_vz	ground_force1_px	ground_force1_py	ground_force1_pz	ground_force2_vx	ground_force2_vy	ground_force2_vz	ground_force2_px	ground_force2_py	ground_force2_pz	ground_torque1_x	ground_torque1_y	ground_torque1_z	ground_torque2_x	ground_torque2_y	ground_torque2_z	
13.23660800000000	-9.30347400000000	40.69733400000000	-12.34684600000000	0.37901100000000	0.00000000000000	0.05786300000000	-43.61963000000000	777.68581600000005	-57.80085600000000	0.18071900000000	0.00000000000000	-0.12433700000000	0.00000000000000	-9.93389500000000	0.00000000000000	0.00000000000000	-29.93977700000000	0.00000000000000	
13.23827800000000	-10.23403300000000	47.38324200000000	-13.87857700000000	0.37936600000000	0.00000000000000	0.05917800000000	-43.76789400000000	775.02068099999997	-57.45356000000000	0.17997200000000	0.00000000000000	-0.12428500000000	0.00000000000000	-11.17847500000000	0.00000000000000	0.00000000000000	-29.75746000000000	0.00000000000000	
13.23994200000000	-10.99785400000000	54.07187800000000	-15.26877000000000	0.37987600000000	0.00000000000000	0.06038900000000	-43.93090800000000	772.28071499999999	-57.08870100000000	0.17922000000000	0.00000000000000	-0.12423000000000	0.00000000000000	-12.31814400000000	0.00000000000000	0.00000000000000	-29.57529400000000	0.00000000000000	
13.24161600000000	-11.57006800000000	60.67131900000000	-16.48488800000000	0.38052800000000	0.00000000000000	0.06150900000000	-44.10929900000000	769.46588499999996	-56.70626400000000	0.17846500000000	0.00000000000000	-0.12417100000000	0.00000000000000	-13.32808900000000	0.00000000000000	0.00000000000000	-29.39352900000000	0.00000000000000	
13.24327700000000	-11.93591600000000	67.11443300000001	-17.50545600000000	0.38131200000000	0.00000000000000	0.06254900000000	-44.30363400000000	766.57604000000003	-56.30624200000000	0.17770900000000	0.00000000000000	-0.12410900000000	0.00000000000000	-14.19197500000000	0.00000000000000	0.00000000000000	-29.21239600000000	0.00000000000000	
13.24494400000000	-12.09060500000000	73.36068299999999	-18.32020100000000	0.38221600000000	0.00000000000000	0.06351900000000	-44.51441400000000	763.61090200000001	-55.88863400000000	0.17695100000000	0.00000000000000	-0.12404300000000	0.00000000000000	-14.90204300000000	0.00000000000000	0.00000000000000	-29.03211300000000	0.00000000000000	
13.24661000000000	-12.03837700000000	79.39543600000000	-18.92924100000000	0.38323200000000	0.00000000000000	0.06442500000000	-44.74207300000000	760.57006799999999	-55.45345100000000	0.17619500000000	0.00000000000000	-0.12397300000000	0.00000000000000	-15.45849700000000	0.00000000000000	0.00000000000000	-28.85288300000000	0.00000000000000	
13.24827700000000	-11.79100400000000	85.22726000000000	-19.34157800000000	0.38434900000000	0.00000000000000	0.06527600000000	-44.98697500000000	757.45300499999996	-55.00070900000000	0.17544000000000	0.00000000000000	-0.12389900000000	0.00000000000000	-15.86834800000000	0.00000000000000	0.00000000000000	-28.67489000000000	0.00000000000000	
13.24994400000000	-11.36591400000000	90.88378600000000	-19.57311000000000	0.38556000000000	0.00000000000000	0.06607600000000	-45.24940500000000	754.25905100000000	-54.53043700000000	0.17468700000000	0.00000000000000	-0.12382200000000	0.00000000000000	-16.14390300000000	0.00000000000000	0.00000000000000	-28.49830200000000	0.00000000000000	
13.25160900000000	-10.78418100000000	96.40670200000000	-19.64443100000000	0.38685700000000	0.00000000000000	0.06683000000000	-45.52957500000000	750.98741399999994	-54.04267300000000	0.17393900000000	0.00000000000000	-0.12374000000000	0.00000000000000	-16.30107600000000	0.00000000000000	0.00000000000000	-28.32326800000000	0.00000000000000	
13.25327700000000	-10.06857000000000	101.84648300000001	-19.57862800000000	0.38823100000000	0.00000000000000	0.06754300000000	-45.82761200000000	747.63717199999996	-53.53746900000000	0.17319600000000	0.00000000000000	-0.12365300000000	0.00000000000000	-16.35769800000000	0.00000000000000	0.00000000000000	-28.14991600000000	0.00000000000000	
13.25494400000000	-9.24176900000000	107.25728800000000	-19.39925500000000	0.38967500000000	0.00000000000000	0.06821900000000	-46.14356100000000	744.20727699999998	-53.01488800000000	0.17246000000000	0.00000000000000	-0.12356200000000	0.00000000000000	-16.33195800000000	0.00000000000000	0.00000000000000	-27.97835400000000	0.00000000000000	
13.25661600000000	-8.32494000000000	112.69243899999999	-19.12862500000000	0.39118200000000	0.00000000000000	0.06886000000000	-46.47738000000000	740.69655299999999	-52.47500700000000	0.17173100000000	0.00000000000000	-0.12346700000000	0.00000000000000	-16.24107500000000	0.00000000000000	0.00000000000000	-27.80867100000000	0.00000000000000	
13.25827800000000	-7.33662700000000	118.20071700000000	-18.78648300000000	0.39274600000000	0.00000000000000	0.06947000000000	-46.82893800000000	737.10370399999999	-51.91791900000000	0.17101000000000	0.00000000000000	-0.12336700000000	0.00000000000000	-16.10026200000000	0.00000000000000	0.00000000000000	-27.64093100000000	0.00000000000000	
13.25994900000000	-6.29206100000000	123.82361500000000	-18.38910900000000	0.39435900000000	0.00000000000000	0.07005100000000	-47.19801300000000	733.42731200000003	-51.34373200000000	0.17030000000000	0.00000000000000	-0.12326200000000	0.00000000000000	-15.92202100000000	0.00000000000000	0.00000000000000	-27.47517800000000	0.00000000000000	
13.26161200000000	-5.20282700000000	129.59361000000001	-17.94884600000000	0.39601500000000	0.00000000000000	0.07060500000000	-47.58429100000000	729.66584899999998	-50.75257200000000	0.16960000000000	0.00000000000000	-0.12315200000000	0.00000000000000	-15.71575100000000	0.00000000000000	0.00000000000000	-27.31143300000000	0.00000000000000	
13.26327500000000	-4.07687300000000	135.53337099999999	-17.47399900000000	0.39770700000000	0.00000000000000	0.07113500000000	-47.98735900000000	725.81767300000001	-50.14458300000000	0.16891300000000	0.00000000000000	-0.12303700000000	0.00000000000000	-15.48766500000000	0.00000000000000	0.00000000000000	-27.14969300000000	0.00000000000000	
13.26494800000000	-2.91877900000000	141.65582300000000	-16.96906000000000	0.39943100000000	0.00000000000000	0.07164100000000	-48.40671300000000	721.88104299999998	-49.51992700000000	0.16823800000000	0.00000000000000	-0.12291700000000	0.00000000000000	-15.24094300000000	0.00000000000000	0.00000000000000	-26.98993200000000	0.00000000000000	
13.26660800000000	-1.73023800000000	147.96488099999999	-16.43517600000000	0.40118000000000	0.00000000000000	0.07212500000000	-48.84174700000000	717.85411899999997	-48.87879000000000	0.16757700000000	0.00000000000000	-0.12279200000000	0.00000000000000	-14.97608700000000	0.00000000000000	0.00000000000000	-26.83210000000000	0.00000000000000	
13.26828100000000	-0.51065300000000	154.45669599999999	-15.87078600000000	0.40294900000000	0.00000000000000	0.07259000000000	-49.29176000000000	713.73497299999997	-48.22137700000000	0.16693000000000	0.00000000000000	-0.12266100000000	0.00000000000000	-14.69141200000000	0.00000000000000	0.00000000000000	-26.67612500000000	0.00000000000000	
